# xmcd
#
# Track frame offsets: 
#        150
#        17212
#        34725
#        50992
#        64505
#        81160
#        98150
#        122457
#        136407
#        150267
#        170025
#        186480
#        201017
#        219665
#        235125
#
# Disc length: 3379 seconds
#
# Revision: 3
# Processed by: cddbd v1.5.2PL0 Copyright (c) Steve Scherf et al.
# Submitted via: ExactAudioCopy v0.99pb5
#
DISCID=d00d310f
DTITLE=Robert Lucas - Usin' Man Blues
DYEAR=1990
DGENRE=Blues
TTITLE0=Usin' Man
TTITLE1=Ramblin' on my Mind
TTITLE2=What Happened To My Shoes
TTITLE3=If I Had Posession Over Judgement Day
TTITLE4=If You See That Woman
TTITLE5=Moonshine 1
TTITLE6=I'm In Jail Again
TTITLE7=Dancin' With Mr. Jones
TTITLE8=Keep Your Business To Yourself
TTITLE9=Me and The Devil
TTITLE10=Jinx Around My Bed
TTITLE11=Motherless Children
TTITLE12=It's Christmas Time Baby
TTITLE13=New View
TTITLE14=Moonshine 2
EXTD=
EXTT0=
EXTT1=
EXTT2=
EXTT3=
EXTT4=
EXTT5=
EXTT6=
EXTT7=
EXTT8=
EXTT9=
EXTT10=
EXTT11=
EXTT12=
EXTT13=
EXTT14=
PLAYORDER=
